<?xml version="1.0" encoding="UTF-8"?>
<svg id="Layer_2" data-name="Layer 2" xmlns="http://www.w3.org/2000/svg" viewBox="0 0 2 1.96">
  <defs>
    <style>
      .cls-1 {
        fill: #1d1d1b;
        stroke-width: 0px;
      }
    </style>
  </defs>
  <g id="Layer_1-2" data-name="Layer 1">
    <path class="cls-1" d="m1.99,1.11l-.17-.37s-.01-.01-.02-.02c-.01,0-.02,0-.04,0-.01,0-.02.01-.02.03,0,.02,0,.05-.01.07,0,.03-.03.05-.05.06-.02.01-.05.01-.08,0l-.29-.09.17-.23c.08-.11.13-.21.14-.3,0-.09-.02-.17-.09-.25-.01-.01-.02-.02-.04-.01l-.4.05s-.02,0-.02.02c0,.01-.01.02-.01.04,0,.01,0,.02.02.03.02,0,.04.02.06.03.03.02.04.04.04.06,0,.02,0,.05-.02.08l-.18.24-.17-.23c-.08-.11-.16-.19-.24-.22-.08-.04-.17-.03-.26.01-.01,0-.02.02-.03.04l-.08.4s0,.02,0,.03c0,.01.02.02.03.02.01,0,.02,0,.03-.01.01-.02.03-.03.05-.05.03-.02.05-.03.07-.02s.05.02.07.05l.18.24-.27.09c-.13.04-.23.1-.29.16C.02,1.11,0,1.2,0,1.3c0,.02.01.03.03.04l.35.2s.02,0,.03,0c.01,0,.02-.01.03-.02,0-.01,0-.02,0-.03-.01-.02-.02-.04-.03-.06,0-.03,0-.06,0-.08.01-.02.03-.04.06-.05l.29-.09v.29c0,.14.02.25.07.32.04.08.12.12.22.15.01,0,.03,0,.04-.01l.3-.27s0-.02,0-.03c0-.01,0-.02-.01-.03,0,0-.02-.01-.03,0-.02,0-.04,0-.07,0-.03,0-.06,0-.07-.03s-.03-.04-.03-.08v-.3l.27.09c.13.04.24.06.33.04.09-.02.15-.07.21-.16,0-.01,0-.03,0-.04Z"/>
  </g>
</svg>