<?xml version="1.0" encoding="UTF-8"?>
<svg id="Layer_2" data-name="Layer 2" xmlns="http://www.w3.org/2000/svg" viewBox="0 0 188.48 184.25">
  <defs>
    <style>
      .cls-1 {
        fill: #1d1d1b;
        stroke-width: 0px;
      }
    </style>
  </defs>
  <g id="Layer_1-2" data-name="Layer 1">
    <path class="cls-1" d="m187.86,104.82l-15.97-34.62c-.4-.78-1.12-1.34-2.16-1.68-1.17-.38-2.33-.35-3.47.1-1.13.45-1.73,1.31-1.82,2.59-.03,2.12-.41,4.28-1.14,6.51-.91,2.81-2.4,4.74-4.46,5.79-2.06,1.05-4.56,1.1-7.52.13l-27.41-8.9,15.77-21.7c7.77-10.7,12.06-20.17,12.87-28.41.8-8.26-2.1-16.04-8.71-23.34-.94-1.07-2.28-1.47-4.03-1.2l-37.86,4.49c-.86.14-1.62.65-2.26,1.53-.72,1-1.05,2.11-.98,3.33.08,1.21.71,2.05,1.9,2.53,2.01.69,3.95,1.72,5.84,3.09,2.39,1.73,3.77,3.75,4.13,6.03.36,2.28-.37,4.67-2.2,7.19l-16.6,22.84-15.64-21.52c-7.77-10.7-15.45-17.7-23.05-21.02-7.61-3.32-15.9-2.96-24.89,1.07-1.31.57-2.11,1.72-2.39,3.46l-7.42,37.4c-.14.86.12,1.75.76,2.63.72,1,1.68,1.65,2.86,1.96,1.18.3,2.17-.04,3-1.03,1.27-1.7,2.85-3.22,4.74-4.6,2.39-1.73,4.73-2.42,7.01-2.06s4.33,1.79,6.16,4.31l16.77,23.08-25.67,8.34c-12.57,4.08-21.61,9.23-27.11,15.42-5.51,6.21-7.73,14.21-6.67,24,.13,1.42.98,2.53,2.55,3.34l33.27,18.62c.78.4,1.7.43,2.73.09,1.17-.38,2.09-1.09,2.74-2.12.64-1.03.63-2.08-.05-3.17-1.22-1.74-2.18-3.71-2.91-5.93-.91-2.81-.84-5.24.2-7.3,1.05-2.06,3.04-3.56,6-4.53l27.25-8.85v27.13c0,13.22,2.1,23.4,6.29,30.55,4.2,7.16,11.12,11.74,20.77,13.76,1.4.31,2.71-.15,3.97-1.4l27.99-25.89c.62-.62.93-1.48.93-2.57,0-1.23-.39-2.33-1.17-3.26-.78-.93-1.78-1.24-3.03-.93-2.03.63-4.2.93-6.54.93-2.95,0-5.25-.82-6.88-2.45-1.63-1.63-2.45-4-2.45-7.11v-28.71l25.52,8.29c12.57,4.09,22.91,5.24,31,3.46,8.1-1.79,14.6-6.95,19.5-15.5.73-1.23.7-2.63-.1-4.2Z"/>
  </g>
</svg>