<svg fill="#222222" xmlns="http://www.w3.org/2000/svg" viewBox="0 0 238.09 63.55">
    <path d="M237.79 35.78c-.44-.92-1.26-.64-1.99-.61-.23.01-.47.07-.7.1-.45.04-.9.1-1.36.1-1.53 0-2.57-.77-3.05-2.23-.26-.78-.27-1.59-.27-2.39V7.14c0-.74-.02-1.48-.11-2.21-.25-2.02-1.13-3.61-3.09-4.44-.93-.4-1.93-.45-2.92-.45h-16.29c-.27 0-.54.02-.81.02-1.05-.01-1.91.43-2.67 1.13-2.61 2.41-5.2 4.82-7.83 7.2-3.68 3.34-7.18 6.89-11.22 9.83-.14.1-.25.34-.46.22-.18-.11-.1-.34-.1-.52V7.28c0-.77-.02-1.55-.11-2.32-.24-2.04-1.13-3.65-3.11-4.48-.93-.39-1.93-.45-2.92-.45h-15.23c-.59 0-1.18.02-1.76.08-1.14.1-2.15.53-2.99 1.31-.87.8-1.74 1.59-2.61 2.38-4.05 3.7-8.08 7.4-12.15 11.08-1.12 1.01-1.72 2.17-1.7 3.7.04 4.83.02 9.65.03 14.48 0 .54.03 1.08.09 1.61.04.39-.09.53-.47.5-1.32-.14-2.34-.71-2.86-1.98-.35-.86-.39-1.77-.39-2.68V7.01c0-.6 0-1.22-.07-1.81-.26-2-1.14-3.6-3.01-4.54-1.02-.51-2.13-.6-3.24-.61-2.91-.01-5.82.03-8.73-.02-1.26-.02-2.27.39-3.19 1.22-2.64 2.39-5.31 4.75-7.97 7.12-.19.17-.36.52-.64.41-.28-.12-.14-.48-.14-.74 0-2.19 0-4.37-.01-6.56 0-1.07-.36-1.41-1.43-1.44h-.3c-3.46 0-6.93.01-10.39 0-1 0-1.82.32-2.55 1-1.71 1.59-3.46 3.15-5.19 4.71-.16.15-.32.46-.56.33-.23-.11-.09-.43-.11-.65-.03-.55 0-1.11-.06-1.66-.14-1.33-.57-2.5-1.88-3.12-.71-.33-1.46-.51-2.24-.53-4.69-.14-9.38-.04-14.07-.05-1.26 0-2.34.45-3.28 1.32-4.87 4.46-9.76 8.91-14.65 13.35-.93.84-1.41 1.81-1.39 3.1.04 2.89 0 5.78.02 8.68 0 1.03.02 2.05.11 3.07.16 1.74.4 3.47.89 5.16.07.24.08.45-.25.46-1.44.04-2.97-.41-3.6-2.1-.32-.85-.35-1.74-.35-2.63V7.03c0-.96 0-1.92-.27-2.85-.42-1.49-1.25-2.66-2.63-3.41-1.07-.59-2.24-.69-3.42-.7-2.84-.01-5.68.04-8.52-.03-1.41-.04-2.52.41-3.55 1.35-2.63 2.41-5.31 4.76-7.97 7.13-.14.13-.28.37-.5.28-.22-.09-.13-.36-.13-.55V1.59c0-1.17-.35-1.53-1.49-1.54H11.09c-.77 0-1.46.24-2.03.76C6.32 3.22 3.64 5.67.94 8.1c-.7.62-.97 1.38-.94 2.29.03.9.46 1.39 1.36 1.42 1.09.04 2.19.02 3.28.03.39 0 .77 0 1.15.1.72.17 1.05.49 1.13 1.23.06.5.07 1.01.07 1.51V46.2c0 .34 0 .67.07 1 .11.49.42.76.9.83.26.04.54.04.8.04h12.76c1.68 0 1.91-.23 1.91-1.93V17.79c0-.26.1-.45.29-.61 1.17-.94 2.38-1.81 3.73-2.48 1.19-.59 2.43-.96 3.79-.8 1.6.18 2.26.77 2.58 2.34.16.76.16 1.54.16 2.31.01 4.44-.02 8.88.04 13.32.04 2.8.36 5.57 1.18 8.26.49 1.6 1.13 3.13 2.17 4.46 1.99 2.54 4.74 3.72 7.81 4.3.65.12 1.21-.06 1.7-.53 1.45-1.38 2.92-2.74 4.38-4.1 1.62-1.51 3.25-3.02 4.86-4.55.31-.29.51-.31.73.09.18.32.41.62.62.92 1.73 2.4 3.81 4.4 6.5 5.68 3.01 1.43 6.19 2.23 9.51 2.43.62.04 1.14-.18 1.6-.6 5.37-4.82 10.74-9.63 16.11-14.44.3-.27.59-.55.82-.89.28-.42.4-.87.19-1.34-.98-2.2-2.36-2.89-4.2-1.43-.18.15-.38.28-.57.42-1.1.83-2.26 1.58-3.45 2.28-3.07 1.83-6.33 2.55-9.87 1.72-2.24-.53-3.86-1.73-4.66-3.95-.15-.41-.1-.68.34-.83.11-.04.21-.1.32-.15 5.2-2.45 10.4-4.89 15.6-7.34 1.38-.65 2.67-1.44 3.68-2.61 1.2-1.39 1.58-3.09 1.71-4.86.06-.82.04-1.65.06-2.47 0-.25.01-.51.34-.51.86 0 1.72-.09 2.56.09.75.16 1.06.5 1.14 1.27.05.5.06 1.01.06 1.51v31.42c0 .35 0 .7.07 1.05.11.49.42.76.9.83.26.04.54.04.8.04h12.81c1.6 0 1.85-.25 1.85-1.83V26.74c0-2.86.01-5.72-.01-8.57 0-.57.18-.93.62-1.27 1.03-.76 2.06-1.52 3.2-2.11 1.26-.65 2.56-1.08 4.02-.92 1.6.18 2.25.77 2.58 2.35.15.73.16 1.47.16 2.21v10.84c0 1.77.04 3.53.2 5.29.22 2.32.62 4.59 1.44 6.78.85 2.25 2.16 4.13 4.19 5.47 1.49.98 3.15 1.56 4.88 1.97.92.21 1.67.08 2.39-.61 2.68-2.57 5.42-5.08 8.13-7.63.33-.31.51-.32.75.1.65 1.12 1.55 2.03 2.55 2.84 2.61 2.1 5.62 3.39 8.8 4.35 1.37.41 2.47.1 3.54-.89 3.14-2.91 6.36-5.75 9.55-8.61.12-.11.23-.3.41-.23.18.07.14.29.15.45.11.95.14 1.91.32 2.85.42 2.13 1.19 4.1 2.59 5.78 1.19 1.43 2.74 2.37 4.43 3.09.83.35 1.69.64 2.59.98-.23.2-.44.15-.63.15h-24.41c-.74 0-1.43.13-2.01.65-2.58 2.33-5.17 4.66-7.75 6.99-.65.58-.96 1.33-1 2.19-.09 1.6.53 2.27 2.14 2.28h32.99c.84 0 1.59-.18 2.24-.74 2.21-1.92 4.44-3.82 6.64-5.74.86-.75 1.44-1.66 1.58-2.84.2-1.61-.17-2.98-1.38-4.12-.8-.75-1.44-1.63-1.84-2.68-.56-1.49-.7-3.05-.76-4.61-.21-6.24-.06-12.47-.1-18.71 0-.29.08-.52.3-.71.69-.58 1.37-1.18 2.07-1.77.13-.11.26-.33.46-.22.16.09.08.31.08.47v9.89c0 1.13.04 2.25.18 3.37.48 3.71 2.1 6.75 5.1 9.05 2.6 1.99 5.52 3.3 8.62 4.29 1.07.34 1.87.14 2.7-.62 3.28-2.99 6.6-5.93 9.91-8.89.14-.13.27-.36.5-.27.21.08.19.34.23.53.11.58.24 1.15.43 1.71.93 2.73 2.57 4.88 5.1 6.32 1.43.81 2.98 1.3 4.58 1.64.63.13 1.17-.07 1.65-.53 2.19-2.06 4.4-4.1 6.61-6.15l3.84-3.57c.82-.76.98-1.79.47-2.86ZM77.78 17.98c-.1.84-.63 1.39-1.31 1.82-1.32.84-2.79 1.4-4.19 2.09-1.04.51-2.09 1-3.14 1.5-.44.21-.53.16-.53-.33v-4.38c0-1.43.01-2.85 0-4.28 0-.44.11-.63.59-.63 2.3.02 4.6 0 6.9.01.22 0 .44.02.65.05.64.09.98.39 1.03 1.04.09 1.04.1 2.08-.02 3.12ZM168 31.66c-1.49 1.17-3.04 2.23-4.86 2.8-.95.3-1.94.53-2.92.17-1.22-.45-1.76-1.48-2.08-2.67-.2-.75-.21-1.53-.21-2.3V14.43c0-.63.03-.66.65-.66h8.27c.27 0 .54.02.8.07.42.08.69.34.77.76.05.28.07.57.07.85 0 5.06 0 10.12.01 15.18 0 .45-.14.75-.5 1.02Zm45.43.02c-1.54 1.13-3.12 2.17-4.95 2.78-.76.25-1.53.38-2.33.32-1.12-.08-1.88-.66-2.31-1.68a5.16 5.16 0 0 1-.41-2.01v-8.27h-.02V14.5c0-.7.02-.72.69-.72h8.17c.27 0 .54.02.8.06.47.07.76.35.83.82.04.3.06.6.06.9 0 5.01 0 10.02.01 15.03 0 .49-.16.8-.55 1.09Z"/>
</svg>